<?xml version="1.0" standalone="no"?>
<!DOCTYPE svg PUBLIC "-//W3C//DTD SVG 20010904//EN"
 "http://www.w3.org/TR/2001/REC-SVG-20010904/DTD/svg10.dtd">
<svg version="1.0" xmlns="http://www.w3.org/2000/svg"
 width="793.000000pt" height="793.000000pt" viewBox="0 0 793.000000 793.000000"
 preserveAspectRatio="xMidYMid meet">
<metadata>
Created by potrace 1.14, written by Peter Selinger 2001-2017
</metadata>
<g transform="translate(0.000000,793.000000) scale(0.100000,-0.100000)"
fill="#000000" stroke="none">
<path d="M7030 6920 c-28 -9 -61 -26 -73 -37 -12 -11 -33 -29 -45 -39 -46 -37
-79 -92 -237 -399 -48 -93 -107 -206 -130 -250 -48 -92 -142 -271 -240 -460
-37 -71 -93 -179 -125 -240 -32 -60 -88 -168 -125 -240 -167 -321 -209 -401
-220 -417 -10 -15 -85 93 -530 760 -285 427 -541 806 -568 842 -71 93 -167
182 -234 215 -47 24 -71 29 -128 30 -178 0 -259 -91 -632 -715 -93 -157 -186
-312 -205 -345 -19 -33 -88 -150 -153 -260 -64 -110 -142 -243 -173 -295 -30
-52 -81 -138 -112 -190 -31 -52 -59 -102 -63 -110 -4 -8 -13 -24 -20 -35 -7
-11 -25 -41 -41 -67 -15 -27 -29 -48 -31 -48 -2 0 -34 57 -71 127 -81 154
-343 627 -408 736 -25 43 -46 80 -46 82 0 2 -34 59 -76 127 -248 402 -389 584
-483 624 -74 31 -153 15 -234 -48 -56 -43 -161 -148 -228 -228 -30 -36 -57
-67 -60 -70 -10 -9 -174 -222 -229 -299 -374 -517 -773 -1415 -964 -2168 -24
-98 -47 -195 -50 -217 -4 -21 -8 -41 -10 -45 -3 -3 -7 -26 -11 -51 -4 -25 -8
-47 -10 -50 -2 -3 -6 -30 -10 -60 -10 -85 -13 -106 -19 -137 -3 -15 -8 -57
-11 -93 -4 -36 -8 -83 -10 -105 -6 -63 -6 -344 0 -405 14 -141 50 -308 84
-395 79 -196 175 -317 342 -427 127 -83 157 -99 414 -208 62 -26 327 -105 470
-140 119 -28 405 -81 520 -95 28 -3 59 -8 70 -10 11 -2 47 -7 80 -10 33 -4 74
-8 90 -10 76 -9 147 -15 225 -21 47 -3 101 -8 120 -9 233 -24 1137 -24 1340
-1 19 3 78 7 130 11 102 7 177 13 225 20 17 2 64 7 105 10 41 3 86 8 100 10
14 2 48 7 75 10 28 3 61 7 75 10 14 3 45 7 70 10 120 14 428 66 570 97 52 11
104 22 115 24 299 57 905 241 1130 344 11 5 54 23 95 41 109 46 282 133 345
174 31 19 58 35 61 35 2 0 10 4 17 10 7 5 59 44 117 87 185 137 370 336 510
548 71 109 190 355 239 497 43 125 102 356 121 478 7 41 14 84 16 95 2 11 6
45 10 75 3 30 7 66 9 80 22 145 23 735 1 870 -3 14 -7 61 -11 104 -4 43 -8 86
-10 95 -1 9 -6 43 -9 76 -10 81 -43 294 -61 380 -8 39 -17 86 -20 105 -42 244
-187 780 -301 1112 -138 404 -283 559 -464 498z m53 -1120 c36 -29 62 -74 91
-162 25 -73 88 -347 101 -433 3 -23 7 -50 9 -60 2 -11 7 -45 12 -75 4 -30 8
-57 9 -60 1 -3 5 -34 9 -70 5 -36 10 -72 11 -80 2 -8 6 -53 10 -100 4 -46 9
-96 10 -110 7 -51 18 -338 18 -450 0 -163 -12 -363 -28 -480 -3 -19 -7 -57
-10 -85 -11 -96 -55 -304 -90 -425 -69 -238 -168 -449 -293 -630 -85 -122
-270 -307 -388 -388 -89 -60 -243 -143 -314 -170 -119 -44 -292 -93 -450 -127
-8 -2 -96 -22 -195 -45 -99 -23 -191 -44 -205 -46 -14 -3 -50 -11 -80 -19 -30
-7 -68 -16 -85 -19 -16 -3 -41 -8 -55 -11 -14 -3 -36 -8 -50 -11 -14 -3 -108
-23 -210 -44 -190 -40 -209 -44 -295 -60 -189 -35 -394 -70 -429 -75 -23 -3
-72 -9 -111 -14 -185 -23 -1608 -20 -1756 4 -13 2 -71 6 -129 9 -58 4 -116 8
-130 10 -14 3 -56 7 -95 11 -203 19 -438 62 -575 107 -163 52 -404 196 -524
313 -144 139 -205 256 -240 461 -17 95 -23 359 -12 472 3 26 8 83 11 127 10
132 13 156 31 250 81 447 318 1049 638 1620 59 105 112 199 119 210 56 93 102
163 204 316 31 46 74 77 101 73 6 -1 16 -2 21 -3 16 -2 61 -53 87 -100 14 -25
38 -66 52 -91 296 -524 326 -577 387 -685 15 -27 31 -54 35 -60 4 -5 18 -30
32 -55 56 -102 94 -170 146 -260 30 -52 66 -115 80 -140 86 -155 122 -210 172
-260 181 -184 350 -179 497 15 26 35 91 144 181 305 13 25 28 50 32 55 4 6 18
30 32 55 14 25 45 80 69 123 24 42 51 90 59 105 9 15 50 88 92 162 42 74 85
151 95 170 11 19 102 180 201 358 100 177 193 344 207 372 67 133 162 183 254
135 43 -22 107 -99 169 -205 124 -213 410 -628 667 -968 55 -74 107 -144 115
-156 48 -70 180 -237 219 -276 150 -153 300 -172 414 -53 21 22 67 93 103 159
84 155 704 1396 704 1410 0 6 9 19 20 29 11 10 20 24 20 31 0 6 25 35 56 63
63 58 102 66 147 31z"/>
<path d="M5030 3526 c-68 -57 -342 -333 -445 -449 -33 -37 -63 -67 -66 -67 -4
0 -89 64 -190 141 -321 248 -407 290 -470 233 -11 -10 -16 -26 -14 -42 1 -15
3 -33 4 -40 2 -27 176 -182 396 -352 66 -51 124 -96 128 -100 5 -4 -16 -36
-45 -71 -96 -116 -293 -376 -326 -430 -29 -48 -28 -84 3 -115 20 -20 29 -23
45 -14 33 18 234 229 389 410 36 41 70 81 77 89 11 12 26 5 95 -39 199 -127
400 -185 549 -156 47 9 140 57 154 78 20 33 -53 78 -129 78 -49 0 -207 60
-345 131 -74 38 -143 76 -153 83 -16 12 -8 26 95 162 137 184 350 503 342 515
-11 18 -31 8 -94 -45z"/>
</g>
</svg>
